<svg id="23beb66b-2dae-437d-b695-c46d4d01ce1c" data-name="Слой 1" xmlns="http://www.w3.org/2000/svg" width="868.73" height="220.8" viewBox="0 0 868.73 220.8"><title>jquery</title><path d="M486.23,350.67c-0.07,1.91-.2,3.88-0.45,6l7.77-14.09L492.7,338l7.8-1.19,2.84,19.52L506.93,344a14.94,14.94,0,0,0,.46-3,11.44,11.44,0,0,0-.37-3.16l8.17-1.55a21.44,21.44,0,0,1,.44,4.59,20.27,20.27,0,0,1-1.93,7.34L507.12,366h-9.73l-2-13.19L487.73,366H478.3a190.46,190.46,0,0,0-.93-28.05l8.1-1.25A79.76,79.76,0,0,1,486.23,350.67Z" transform="translate(-151.63 -154.1)" style="fill:#0062a4"/><path d="M536.89,343.93c-3.77,2-5.17,2.81-8.58,4.89L524.66,366h-8.41l5.94-28.35,7.44-1.25-0.32,3.94a64.81,64.81,0,0,1,7.72-3.94Z" transform="translate(-151.63 -154.1)" style="fill:#0062a4"/><path d="M541.88,337.54l8.7-1.19L544.29,366h-8.41Zm2.72-12.83,8.69-1.19-1.92,9-8.63,1.19Z" transform="translate(-151.63 -154.1)" style="fill:#0062a4"/><path d="M566.07,343.63L563,358.13a5,5,0,0,0-.15.78c0,0.42.22,0.6,0.82,0.6a13.46,13.46,0,0,0,4.57-1.19l1.47,5.85a20.7,20.7,0,0,1-9.33,2.39c-4.24,0-6.43-2-6.31-5.49a9.24,9.24,0,0,1,.16-1.25l3.43-16.17h-4.29l1.43-6.74h4.3l1.44-7,8.69-1.19-1.72,8.18h6.92l-1.91,6.74h-6.44Z" transform="translate(-151.63 -154.1)" style="fill:#0062a4"/><path d="M576.09,347.27c1.42-6.68,4.56-11,13.75-11,5.49,0,9.58,2.39,9.41,7.28-0.2,5.67-3.21,8.3-10.45,10.44-3.56,1.07-3.62,1.07-6.15,1.73l-0.43,2c-0.22,1.08-.13,2,1.42,2,3,0,7.51-1.49,11.51-3.22l1.4,6a29.53,29.53,0,0,1-14.34,4c-6,0-8.5-2.63-8.33-7.58a19.37,19.37,0,0,1,.48-3.52Zm15.31-2.8c0-1-.84-1.67-2.39-1.67-3,0-4,1.73-4.5,4.12l-0.43,2c1.44-.36,2.1-0.48,3.85-1C590.23,347.27,591.34,346.2,591.4,344.47Z" transform="translate(-151.63 -154.1)" style="fill:#0062a4"/><path d="M621,325l8.7-1.19L620.78,366h-8.41Z" transform="translate(-151.63 -154.1)" style="fill:#0062a4"/><path d="M630.74,347.27c1.42-6.68,4.56-11,13.75-11,5.49,0,9.58,2.39,9.41,7.28-0.2,5.67-3.21,8.3-10.45,10.44-3.56,1.07-3.62,1.07-6.15,1.73l-0.43,2c-0.22,1.08-.13,2,1.42,2,3,0,7.51-1.49,11.51-3.22l1.4,6a29.53,29.53,0,0,1-14.34,4c-6,0-8.5-2.63-8.33-7.58a19.37,19.37,0,0,1,.48-3.52Zm15.31-2.8c0-1-.84-1.67-2.39-1.67-3,0-4,1.73-4.5,4.12l-0.43,2c1.44-.36,2.1-0.48,3.85-1C644.88,347.27,646,346.2,646.05,344.47Z" transform="translate(-151.63 -154.1)" style="fill:#0062a4"/><path d="M654.6,364.64l1.83-6.21a22.36,22.36,0,0,0,7.82,1.49c2.8,0,3-.83,3.3-2.21s-0.53-2-3.75-3.76c-6-3.22-6.14-5.37-5.21-9.73,1.35-6.27,3.26-7.94,11.32-7.94a30.83,30.83,0,0,1,8.6,1.37l-1.6,6.33a31.56,31.56,0,0,0-7.3-1.07c-2.51,0-2.88.3-3.23,1.85-0.28,1.37,0,1.67,2.76,3.16,6.56,3.58,7.53,4.84,6.53,9.43-1.42,6.57-3.42,9.19-12.14,9.19A24.62,24.62,0,0,1,654.6,364.64Z" transform="translate(-151.63 -154.1)" style="fill:#0062a4"/><path d="M678.71,364.64l1.83-6.21a22.36,22.36,0,0,0,7.82,1.49c2.8,0,3-.83,3.3-2.21s-0.53-2-3.75-3.76c-6-3.22-6.14-5.37-5.21-9.73,1.35-6.27,3.26-7.94,11.32-7.94a30.83,30.83,0,0,1,8.6,1.37L701,344a31.56,31.56,0,0,0-7.3-1.07c-2.51,0-2.88.3-3.23,1.85-0.28,1.37,0,1.67,2.76,3.16,6.56,3.58,7.53,4.84,6.53,9.43-1.42,6.57-3.42,9.19-12.14,9.19A24.62,24.62,0,0,1,678.71,364.64Z" transform="translate(-151.63 -154.1)" style="fill:#0062a4"/><path d="M701.76,372.45l4.82-6.5h-3.16l2.08-9.91h8.41l-2.28,10.62-6.92,8.24Z" transform="translate(-151.63 -154.1)" style="fill:#0062a4"/><path d="M747.75,366l-0.15-2.51a14.47,14.47,0,0,1-9.36,3.1c-6.32,0-7.74-3.82-6.38-10.33l1.65-7.82c1.44-6.92,3.41-12.11,15.64-12.11a21.84,21.84,0,0,1,3.51.3L755.09,325l8.63-1.19L754.85,366h-7.1Zm-7.69-8.71c-0.35,1.55,0,2.27,1.53,2.27a10.4,10.4,0,0,0,6.85-3l2.72-12.95a18.17,18.17,0,0,0-3.27-.24c-4.36,0-5.33,2.33-6,5.13Z" transform="translate(-151.63 -154.1)" style="fill:#0062a4"/><path d="M762.68,356.82a11.85,11.85,0,0,1,.25-2l1.43-6.74c1.57-7.46,5.36-11.76,15.51-11.76,7.82,0,11.18,4.48,11,9.67a13.36,13.36,0,0,1-.25,2.09l-1.43,6.74c-1.5,7-5,11.76-15.57,11.76C766.22,366.55,762.5,362.13,762.68,356.82Zm19.75-10.21c0.08-2.15-1.19-3.28-3.94-3.28-3.16,0-5.07,1.61-5.64,4.48L771.34,355a8.71,8.71,0,0,0-.16,1.19c-0.07,2.09,1.2,3.28,3.94,3.28,3.22,0,5.07-1.61,5.64-4.48l1.51-7.22A9.25,9.25,0,0,0,782.43,346.61Z" transform="translate(-151.63 -154.1)" style="fill:#0062a4"/><path d="M842.24,346.2a5.83,5.83,0,0,0,.15-0.9c0-.6-0.27-0.84-1.1-0.84-1.55,0-5.25,1.55-7.67,2.8L829.67,366h-8.35l4.15-19.75a6.19,6.19,0,0,0,.15-0.9c0-.6-0.27-0.84-1.1-0.84-1.55,0-5.31,1.55-7.62,2.74L813,366h-8.41l5.94-28.35,7.44-1.25-0.17,3.22c4.61-2.15,8.23-3.28,11.57-3.28,2.86,0,4.31,1.25,4.89,3.4a23.8,23.8,0,0,1,11.87-3.4c3.88,0,5.23,2.21,5.11,5.91a17.47,17.47,0,0,1-.41,3.34L846.5,366h-8.41Z" transform="translate(-151.63 -154.1)" style="fill:#0062a4"/><path d="M854,356.82a11.85,11.85,0,0,1,.25-2l1.43-6.74c1.57-7.46,5.36-11.76,15.51-11.76,7.82,0,11.18,4.48,11,9.67A13.33,13.33,0,0,1,882,348l-1.43,6.74c-1.5,7-5,11.76-15.57,11.76C857.57,366.55,853.85,362.13,854,356.82Zm19.75-10.21c0.08-2.15-1.19-3.28-3.94-3.28-3.16,0-5.07,1.61-5.64,4.48L862.69,355a8.72,8.72,0,0,0-.16,1.19c-0.07,2.09,1.2,3.28,3.94,3.28,3.22,0,5.07-1.61,5.64-4.48l1.51-7.22A9.2,9.2,0,0,0,873.78,346.61Z" transform="translate(-151.63 -154.1)" style="fill:#0062a4"/><path d="M904.54,343.93c-3.77,2-5.17,2.81-8.58,4.89L892.32,366h-8.41l5.94-28.35,7.44-1.25L897,340.29a64.91,64.91,0,0,1,7.72-3.94Z" transform="translate(-151.63 -154.1)" style="fill:#0062a4"/><path d="M906.46,347.27c1.42-6.68,4.56-11,13.75-11,5.49,0,9.58,2.39,9.41,7.28-0.2,5.67-3.21,8.3-10.45,10.44-3.56,1.07-3.61,1.07-6.14,1.73l-0.43,2c-0.22,1.08-.13,2,1.42,2,3,0,7.51-1.49,11.51-3.22l1.4,6a29.53,29.53,0,0,1-14.34,4c-6,0-8.5-2.63-8.33-7.58a19.39,19.39,0,0,1,.48-3.52Zm15.31-2.8c0-1-.83-1.67-2.39-1.67-3,0-4,1.73-4.5,4.12l-0.43,2c1.44-.36,2.1-0.48,3.85-1C920.6,347.27,921.71,346.2,921.77,344.47Z" transform="translate(-151.63 -154.1)" style="fill:#0062a4"/><path d="M933.06,356h8.41L939.39,366H931Z" transform="translate(-151.63 -154.1)" style="fill:#0062a4"/><path d="M161.84,196.06c-14.22,20.43-12.46,47-1.58,68.73,0.24,0.53.52,1,.79,1.54,0.15,0.33.33,0.66,0.51,1a5.74,5.74,0,0,0,.31.55c0.18,0.36.36,0.68,0.55,1l1,1.77c0.2,0.33.39,0.65,0.61,1,0.37,0.63.8,1.25,1.19,1.88,0.17,0.27.34,0.53,0.52,0.79,0.56,0.85,1.12,1.69,1.74,2.52a0.07,0.07,0,0,0,0,.06c0.09,0.14.2,0.27,0.29,0.4,0.52,0.72,1,1.42,1.6,2.11,0.19,0.26.39,0.51,0.58,0.76l1.48,1.81,0.57,0.66c0.65,0.79,1.34,1.57,2,2.34a0.22,0.22,0,0,0,0,0,0.32,0.32,0,0,0,.09.09c0.68,0.74,1.36,1.47,2.06,2.19L177,288c0.53,0.54,1.07,1.09,1.64,1.62l0.69,0.65c0.75,0.7,1.49,1.4,2.27,2.07l0,0,0.39,0.33q1,0.88,2.07,1.75l0.84,0.68c0.58,0.46,1.16.9,1.75,1.35l0.92,0.7c0.63,0.47,1.28.93,1.92,1.39,0.23,0.17.47,0.34,0.71,0.49l0.19,0.15,1.88,1.24,0.82,0.53c1,0.62,2,1.22,2.92,1.81l0.83,0.46c0.72,0.42,1.46.83,2.2,1.23,0.41,0.23.82,0.43,1.23,0.63s1,0.55,1.56.83a3.43,3.43,0,0,1,.37.16l0.64,0.31c0.82,0.4,1.66.78,2.52,1.17l0.51,0.23c1,0.42,1.93.82,2.92,1.21,0.23,0.09.46,0.19,0.71,0.27,0.9,0.35,1.83.69,2.75,1l0.34,0.12c1,0.35,2,.68,3.08,1,0.24,0.07.49,0.16,0.75,0.22a30.83,30.83,0,0,0,3.17.9c68.76,12.53,88.74-41.32,88.74-41.32-16.79,21.85-46.57,27.62-74.78,21.2-1-.24-2.08-0.57-3.15-0.89-0.25-.07-0.52-0.15-0.77-0.24-1-.31-2-0.64-3-1l-0.43-.16c-0.9-.31-1.78-0.65-2.67-1-0.25-.11-0.5-0.19-0.75-0.29-1-.38-1.94-0.8-2.89-1.21-0.21-.07-0.39-0.16-0.58-0.24l-2.42-1.14c-0.24-.1-0.46-0.22-0.71-0.34-0.63-.3-1.26-0.63-1.87-1-0.43-.22-0.85-0.43-1.26-0.65-0.76-.41-1.51-0.84-2.27-1.26a8.68,8.68,0,0,0-.76-0.44c-1-.58-2-1.18-2.94-1.8-0.28-.18-0.54-0.35-0.79-0.53-0.71-.45-1.41-0.92-2.1-1.39l-0.68-.48c-0.66-.47-1.32-0.94-2-1.42l-0.87-.66c-0.59-.46-1.19-0.91-1.78-1.39l-0.78-.63c-0.77-.62-1.49-1.24-2.22-1.88a2.07,2.07,0,0,0-.26-0.2c-0.78-.7-1.56-1.41-2.33-2.13-0.23-.22-0.43-0.43-0.66-0.64-0.56-.55-1.12-1.08-1.67-1.64l-0.66-.67q-1-1.06-2.06-2.18l-0.11-.11c-0.71-.78-1.4-1.57-2.08-2.38l-0.55-.65c-0.5-.62-1-1.24-1.51-1.86-0.16-.24-0.35-0.47-0.54-0.7-0.59-.76-1.16-1.53-1.74-2.31-15.66-21.36-21.31-50.84-8.78-75" transform="translate(-151.63 -154.1)" style="fill:#0062a4"/><path d="M206,178.84c-10.31,14.79-9.74,34.6-1.71,50.26a61.35,61.35,0,0,0,4.54,7.58,35.25,35.25,0,0,0,5.3,6.61c0.72,0.82,1.5,1.61,2.31,2.4l0.6,0.6c0.77,0.74,1.55,1.47,2.35,2.18l0.09,0.09,0,0c0.9,0.79,1.81,1.54,2.75,2.28,0.22,0.16.42,0.33,0.64,0.49,0.93,0.73,1.89,1.43,2.85,2.11l0.11,0.05c0.42,0.3.86,0.58,1.32,0.87l0.6,0.4c0.71,0.46,1.41.89,2.13,1.32l0.31,0.16c0.61,0.37,1.25.73,1.89,1.05,0.22,0.13.44,0.24,0.66,0.36l1.32,0.68,0.21,0.09c0.91,0.45,1.83.86,2.74,1.28l0.62,0.25c0.75,0.32,1.5.64,2.25,0.92,0.34,0.11.65,0.24,1,.36l2.07,0.71,0.94,0.3a20.63,20.63,0,0,0,3,.87c53.07,8.8,65.35-32.08,65.35-32.08C301.18,247,279.78,254.56,257,248.64q-1.54-.39-3-0.87c-0.31-.08-0.59-0.18-0.9-0.28-0.71-.23-1.42-0.47-2.11-0.72l-1-.35c-0.76-.3-1.51-0.59-2.25-0.91a6.38,6.38,0,0,1-.6-0.26c-0.94-.41-1.88-0.85-2.78-1.28l-1.39-.72-0.79-.4c-0.62-.32-1.19-0.66-1.77-1L240,241.6c-0.71-.43-1.44-0.86-2.12-1.31-0.23-.13-0.43-0.29-0.65-0.42l-1.4-.91c-1-.67-1.91-1.38-2.85-2.09l-0.64-.52a63.76,63.76,0,0,1-21.69-30.89c-4-12.69-3.09-26.93,3.74-38.48" transform="translate(-151.63 -154.1)" style="fill:#0062a4"/><path d="M243.1,166c-6.08,8.92-6.66,20-2.47,29.85a42.1,42.1,0,0,0,24.15,22.55c0.43,0.17.86,0.31,1.3,0.46l0.59,0.19a17.6,17.6,0,0,0,1.87.55c29.32,5.66,37.27-15,39.4-18.09-7,10-18.68,12.43-33,8.95a34.5,34.5,0,0,1-3.46-1.08c-1.4-.5-2.78-1.07-4.14-1.71a43.44,43.44,0,0,1-7.23-4.42c-12.86-9.75-20.83-28.35-12.44-43.5" transform="translate(-151.63 -154.1)" style="fill:#0062a4"/><path d="M922.48,207.77l1.15,4.86a2,2,0,0,1-2,2.52" transform="translate(-151.63 -154.1)" style="fill:#383633"/><path d="M830,199.43c-0.29,1.35-.64,3-0.87,4.17L819,251.08l10.67-50Z" transform="translate(-151.63 -154.1)" style="fill:#383633"/><polygon points="374.39 77.1 368.79 96.95 374.39 77.11 374.39 77.1" style="fill:#383633"/><path d="M923.63,212.63l-2.92-12.36c-2.31-8.95-8.84-13.18-23.53-13.18H835.41c-1.42,0-2.84.64-3.13,2L808.83,300.27a7.67,7.67,0,0,0-.23,3.1c0.16,0.72,2.91.58,4.32,0.58h21.4c1.43,0,4,.11,4.79-0.2s1.14-2.44,1.43-3.85l7.56-39,9.24-43.23a3.35,3.35,0,0,1,3.12-2.52l61.19,0a2,2,0,0,0,2-2.52" transform="translate(-151.63 -154.1)" style="fill:#383633"/><path d="M1010.68,167.57c-1.43,0-27.14,0-27.14,0-1.42,0-3.25,1.53-4,2.7l-47.63,70.08c-0.81,1.18-1.73,1.14-2-.25l-3.52-15.36a3.38,3.38,0,0,0-3.17-2.53H892.52a1.91,1.91,0,0,0-1.89,2.55l13.72,48.11a11.33,11.33,0,0,1,.08,5L898,302.25c-0.34,1.38.54,1.8,2,1.8h30.23c1.42,0,2.89-.41,3.24-1.8l6.4-24.71a14.78,14.78,0,0,1,2.19-4.4L1019.81,170c0.87-1.13.75-2.48-.67-2.48h-8.46Z" transform="translate(-151.63 -154.1)" style="fill:#383633"/><path d="M691.93,187.18H664.3c-1.41,0-2.85.49-3.13,1.89L652,231.8l-9.1,40.91c-0.29,1.39-1.7,1.29-3.12,1.29H621.65c-18,0-15.89-11.35-12.2-28.36,0-.17,11.52-56.58,11.52-56.58,0.26-1.39-.68-1.89-2.08-1.89H592.56c-1.42,0-2.83.5-3.11,1.89l-10.59,56.53c-5.28,30.57-5.44,57.46,30,58.35,0.58,0,56,0,56,0,1.43,0,2.84-.47,3.15-1.85l12-56.7,12-56.93S692.41,187.18,691.93,187.18Z" transform="translate(-151.63 -154.1)" style="fill:#383633"/><path d="M416.71,187.09H387.09c-1.42,0-2.85.34-3.17,1.74L378.58,212a2,2,0,0,0,2,2.46H409a3.53,3.53,0,0,0,3.16-2.67l5.15-23.3S417.7,187.09,416.71,187.09Z" transform="translate(-151.63 -154.1)" style="fill:#383633"/><path d="M378.69,222.21a3.39,3.39,0,0,0-3.16,2.52l-4,17.64-8.91,40.74s-4.74,21.66-5.2,23c0,0-4,15.64-13.53,15a85.61,85.61,0,0,1-9.51-1.31h0c-2.67-.8-2.85,2-3.18,3.35l-5.88,25.38a2.07,2.07,0,0,0,2,2.66,194.07,194.07,0,0,0,21.76,1.8h1.48c22.25,0,34-13.08,41.51-48.6l8.81-41.11L409.12,225a2.08,2.08,0,0,0-2-2.68" transform="translate(-151.63 -154.1)" style="fill:#383633"/><path d="M761.84,186.92c-49.83,0-61.73,30.8-68.34,61.33C686.88,279.37,687.45,304,739,304h47.17a3.49,3.49,0,0,0,3.08-2.68l5.07-19.74c0.29-1.4-.65-1.81-2.06-1.81H745.88c-16.8,0-22.81-5.18-22.22-16.79,0-1.32,1.5-4.69,2.92-4.69H798c3.14,0,3.24-1.85,3.24-1.85,7.27-32.82,7.75-69.48-39.41-69.48M775,235.82c0,1.54-4.88,1.25-4.88,1.25l-38.85-.28c-1.34,0-1.72-1.88-1.82-3.23a16.76,16.76,0,0,1,.21-2c3-10.42,12-16.37,26.16-16.37,16,0,19.39,7.93,19.39,16.72" transform="translate(-151.63 -154.1)" style="fill:#383633"/><path d="M546.48,271.85s14-33.9,17.12-53.5c4.33-26.22-8.78-64.25-59.5-64.25-50.41,0-72.29,36.3-80.67,75.77C415.1,269.63,426,304.25,476.15,304l76.53,0a3.59,3.59,0,0,0,3.24-2.51l6.45-24.56a1.93,1.93,0,0,0-2-2.52l-6.16,0-6.16,0a1.58,1.58,0,0,1-1.75-1.84,1.75,1.75,0,0,1,.14-0.57M520.16,251l-5.74,19.63A3.64,3.64,0,0,1,511,273H481.35c-22.48,0-27.94-17.37-22.48-43.3,5.49-26.5,16.36-42.9,38.46-44.56,30.23-2.28,36.41,19.07,29.09,43.61Z" transform="translate(-151.63 -154.1)" style="fill:#383633"/></svg>